{
  "accessors": [
    {
      "bufferView": 3,
      "componentType": 5126,
      "count": 2629,
      "max": [
        0.43423864245414734,
        0.9570833444595337,
        0.13405737280845642
      ],
      "min": [
        -0.43423864245414734,
        1.2569711316245957e-06,
        -0.2165905386209488
      ],
      "type": "VEC3"
    },
    {
      "bufferView": 3,
      "byteOffset": 31548,
      "componentType": 5126,
      "count": 2629,
      "max": [
        0.9999435544013977,
        0.9999289512634277,
        0.9999714493751526
      ],
      "min": [
        -0.9999454021453857,
        -1.0,
        -0.9999752044677734
      ],
      "type": "VEC3"
    },
    {
      "bufferView": 2,
      "componentType": 5126,
      "count": 2629,
      "max": [
        0.9957033395767212,
        0.99609375
      ],
      "min": [
        0.0039062201976776123,
        0.007945138961076736
      ],
      "type": "VEC2"
    },
    {
      "bufferView": 1,
      "componentType": 5125,
      "count": 9855,
      "type": "SCALAR"
    },
    {
      "bufferView": 3,
      "byteOffset": 63096,
      "componentType": 5126,
      "count": 384,
      "max": [
        0.31657224893569946,
        0.18672963976860046,
        0.5973535776138306
      ],
      "min": [
        -0.31657224893569946,
        -0.18672962486743927,
        -0.43779444694519043
      ],
      "type": "VEC3"
    },
    {
      "bufferView": 3,
      "byteOffset": 67704,
      "componentType": 5126,
      "count": 384,
      "max": [
        1.0,
        1.0,
        1.0
      ],
      "min": [
        -1.0,
        -1.0,
        -1.0
      ],
      "type": "VEC3"
    },
    {
      "bufferView": 2,
      "byteOffset": 21032,
      "componentType": 5126,
      "count": 384,
      "max": [
        0.9814453125,
        0.984375
      ],
      "min": [
        0.0148468017578125,
        0.01512908935546875
      ],
      "type": "VEC2"
    },
    {
      "bufferView": 1,
      "byteOffset": 39420,
      "componentType": 5125,
      "count": 1656,
      "type": "SCALAR"
    },
    {
      "bufferView": 5,
      "componentType": 5126,
      "count": 33,
      "max": [
        1.0,
        0.026085853576660156,
        1.0,
        0.0,
        1.0,
        1.0,
        1.1707132049269646e-14,
        0.0,
        0.0983319953083992,
        1.0,
        1.0,
        0.0,
        0.5317348837852478,
        0.7727130055427551,
        0.06724149733781815,
        1.0
      ],
      "min": [
        -1.1871362420379835e-14,
        -8.298573959085453e-13,
        -4.912736883966318e-13,
        0.0,
        -1.0,
        -1.0,
        -1.1102230246251565e-14,
        0.0,
        -1.0,
        -1.0,
        -1.0,
        0.0,
        -0.5317348837852478,
        -0.6984555721282959,
        -0.06724154204130173,
        1.0
      ],
      "type": "MAT4"
    },
    {
      "bufferView": 0,
      "componentType": 5123,
      "count": 2629,
      "type": "VEC4"
    },
    {
      "bufferView": 4,
      "componentType": 5126,
      "count": 2629,
      "max": [
        1.0,
        0.5,
        0.0,
        0.0
      ],
      "min": [
        0.5,
        0.0,
        0.0,
        0.0
      ],
      "type": "VEC4"
    }
  ],
  "asset": {
    "extras": {
      "author": "Acheal (https://sketchfab.com/KerbyKhan)",
      "license": "CC-BY-4.0 (http://creativecommons.org/licenses/by/4.0/)",
      "source": "https://sketchfab.com/3d-models/power-white-cat-project-5293acaf886e4b8c891b98f2adccac4c",
      "title": "Power - White Cat Project"
    },
    "generator": "Sketchfab-14.81.0",
    "version": "2.0"
  },
  "bufferViews": [
    {
      "buffer": 0,
      "byteLength": 21032,
      "byteStride": 8,
      "name": "shortBufferViews",
      "target": 34962
    },
    {
      "buffer": 0,
      "byteLength": 46044,
      "byteOffset": 21032,
      "name": "floatBufferViews",
      "target": 34963
    },
    {
      "buffer": 0,
      "byteLength": 24104,
      "byteOffset": 67076,
      "byteStride": 8,
      "name": "floatBufferViews",
      "target": 34962
    },
    {
      "buffer": 0,
      "byteLength": 72312,
      "byteOffset": 91180,
      "byteStride": 12,
      "name": "floatBufferViews",
      "target": 34962
    },
    {
      "buffer": 0,
      "byteLength": 42064,
      "byteOffset": 163492,
      "byteStride": 16,
      "name": "floatBufferViews",
      "target": 34962
    },
    {
      "buffer": 0,
      "byteLength": 2112,
      "byteOffset": 205556,
      "name": "floatBufferViews"
    }
  ],
  "buffers": [
    {
      "byteLength": 207668,
      "uri": "scene.bin"
    }
  ],
  "images": [
    {
      "uri": "textures/ply_mat_20308190_baseColor.png"
    },
    {
      "uri": "textures/ply_mat_20308190_t_baseColor.png"
    }
  ],
  "materials": [
    {
      "doubleSided": true,
      "name": "ply_mat_20308190",
      "pbrMetallicRoughness": {
        "baseColorTexture": {
          "index": 0
        },
        "metallicFactor": 0.0,
        "roughnessFactor": 0.9577051494623774
      }
    },
    {
      "alphaMode": "BLEND",
      "doubleSided": true,
      "name": "ply_mat_20308190_t",
      "pbrMetallicRoughness": {
        "baseColorFactor": [
          1.0,
          1.0,
          1.0,
          0.0
        ],
        "baseColorTexture": {
          "index": 1
        },
        "metallicFactor": 0.0,
        "roughnessFactor": 0.9577051494623774
      }
    }
  ],
  "meshes": [
    {
      "name": "body_ply_mat_20308190_0",
      "primitives": [
        {
          "attributes": {
            "JOINTS_0": 9,
            "NORMAL": 1,
            "POSITION": 0,
            "TEXCOORD_0": 2,
            "WEIGHTS_0": 10
          },
          "indices": 3,
          "material": 0,
          "mode": 4
        }
      ]
    },
    {
      "name": "OptionWeapon_ply_mat_20308190_t_0",
      "primitives": [
        {
          "attributes": {
            "NORMAL": 5,
            "POSITION": 4,
            "TEXCOORD_0": 6
          },
          "indices": 7,
          "material": 1,
          "mode": 4
        }
      ]
    }
  ],
  "nodes": [
    {
      "children": [
        1
      ],
      "matrix": [
        1.0,
        0.0,
        0.0,
        0.0,
        0.0,
        2.220446049250313e-16,
        -1.0,
        0.0,
        0.0,
        1.0,
        2.220446049250313e-16,
        0.0,
        0.0,
        0.0,
        0.0,
        1.0
      ],
      "name": "Sketchfab_model"
    },
    {
      "children": [
        2
      ],
      "matrix": [
        0.009999999776482582,
        0.0,
        0.0,
        0.0,
        0.0,
        0.0,
        0.009999999776482582,
        0.0,
        0.0,
        -0.009999999776482582,
        0.0,
        0.0,
        0.0,
        0.0,
        0.0,
        1.0
      ],
      "name": "Power.fbx"
    },
    {
      "children": [
        3
      ],
      "name": "RootNode"
    },
    {
      "children": [
        4,
        6,
        5
      ],
      "name": "Object_3"
    },
    {
      "children": [
        7
      ],
      "name": "_rootJoint"
    },
    {
      "matrix": [
        1.0,
        -1.5777218104420236e-30,
        1.5777218104420236e-30,
        0.0,
        1.5777218104420236e-30,
        1.0,
        1.20456380176699e-28,
        0.0,
        -1.5777218104420236e-30,
        -1.20456380176699e-28,
        1.0,
        0.0,
        0.0,
        0.0,
        -1.734723475976807e-18,
        1.0
      ],
      "name": "Object_5"
    },
    {
      "mesh": 0,
      "name": "Object_6",
      "skin": 0
    },
    {
      "children": [
        8,
        41
      ],
      "name": "ply_20308190_00"
    },
    {
      "children": [
        9,
        10,
        11,
        12,
        13,
        35,
        38
      ],
      "name": "Root_01",
      "rotation": [
        0.5104395747184753,
        0.48933786153793335,
        0.5104395747184753,
        0.48933786153793335
      ],
      "translation": [
        0.0,
        0.47064879536628723,
        0.010663673281669617
      ]
    },
    {
      "name": "Skirt_B_02",
      "rotation": [
        0.5104395747184753,
        0.48933786153793335,
        -0.5104395747184753,
        0.48933786153793335
      ],
      "translation": [
        -0.038318902254104614,
        -0.06276990473270416,
        6.233077230827981e-16
      ]
    },
    {
      "name": "Skirt_F_03",
      "rotation": [
        0.5104395747184753,
        0.48933786153793335,
        0.5104395747184753,
        -0.48933786153793335
      ],
      "translation": [
        -0.032880447804927826,
        0.06600675731897354,
        -6.140716758259372e-16
      ]
    },
    {
      "name": "Skirt_L_04",
      "rotation": [
        -2.820919017008678e-33,
        2.9425656009164993e-33,
        -0.721870481967926,
        0.6920281648635864
      ],
      "translation": [
        -0.0357012040913105,
        -0.0007856833981350064,
        0.09995000809431076
      ]
    },
    {
      "name": "Skirt_R_05",
      "rotation": [
        0.7218689918518066,
        0.6920298337936401,
        4.237460989651949e-17,
        4.420172944691847e-17
      ],
      "translation": [
        -0.03570074588060379,
        -0.000785704527515918,
        -0.09994999319314957
      ]
    },
    {
      "children": [
        14,
        18,
        19,
        20,
        21,
        25
      ],
      "name": "Spine_06",
      "rotation": [
        5.331926256953689e-22,
        -6.351925821261595e-14,
        -0.09719756990671158,
        0.9952651262283325
      ],
      "translation": [
        0.06815370172262192,
        -0.0005422757240012288,
        -2.802477782367154e-18
      ]
    },
    {
      "children": [
        15,
        16,
        17
      ],
      "name": "Head_07",
      "rotation": [
        -1.3543160162812255e-17,
        -9.965207794006997e-18,
        -0.38255026936531067,
        0.9239346981048584
      ],
      "translation": [
        0.08556342869997025,
        -6.106226635438361e-16,
        1.0818383576396019e-14
      ]
    },
    {
      "name": "Hair_B_08",
      "rotation": [
        7.037501277549062e-18,
        6.052410397134559e-17,
        -0.3113328218460083,
        0.950300931930542
      ],
      "translation": [
        0.12695270776748657,
        5.551115123125783e-16,
        -1.4013620552334998e-14
      ]
    },
    {
      "name": "Hair_L_09",
      "rotation": [
        -0.22014553844928741,
        -0.6719642281532288,
        -0.22014553844928741,
        0.6719642281532288
      ],
      "translation": [
        0.125284805893898,
        0.093338742852211,
        0.15541529655456543
      ]
    },
    {
      "name": "Hair_R_010",
      "rotation": [
        0.6719642877578735,
        -0.2201455980539322,
        0.6719642877578735,
        0.2201455980539322
      ],
      "translation": [
        0.12528476119041443,
        0.09333866089582443,
        -0.15541499853134155
      ]
    },
    {
      "name": "Mant_011",
      "rotation": [
        -2.3053593155024336e-17,
        -1.696309042893722e-17,
        -0.6511890888214111,
        0.7589155435562134
      ],
      "translation": [
        0.053062040358781815,
        -0.050706252455711365,
        -6.34719353288858e-15
      ]
    },
    {
      "name": "Oppai_L_012",
      "rotation": [
        4.2260700508726037e-17,
        -1.2452845456472229e-15,
        0.07617411762475967,
        0.9970945119857788
      ],
      "translation": [
        -0.010742012411355972,
        0.023616809397935867,
        0.03226481005549431
      ]
    },
    {
      "name": "Oppai_R_013",
      "rotation": [
        1.2808888344312285e-15,
        1.4901797701485702e-16,
        0.9970945119857788,
        -0.07617416977882385
      ],
      "translation": [
        -0.010742012411355972,
        0.023616809397935867,
        -0.03226481005549431
      ]
    },
    {
      "children": [
        22
      ],
      "name": "UpperArm_L_014",
      "rotation": [
        -0.46046021580696106,
        -0.5366343259811401,
        -0.46046021580696106,
        0.5366343259811401
      ],
      "translation": [
        0.03344404324889183,
        -0.00020737448357976973,
        0.06430119276046753
      ]
    },
    {
      "children": [
        23
      ],
      "name": "ForeArm_L_015",
      "rotation": [
        1.5265567912084883e-16,
        -6.810682931252671e-14,
        -4.1492867084921836e-13,
        1.0
      ],
      "translation": [
        0.11480632424354553,
        1.1102230246251565e-16,
        1.8214596497756474e-17
      ]
    },
    {
      "children": [
        24
      ],
      "name": "Hand_L_016",
      "rotation": [
        -8.272788257357277e-25,
        -2.1338242596411216e-27,
        -0.01304403506219387,
        0.9999149441719055
      ],
      "translation": [
        0.10500531643629074,
        -9.992007221626409e-16,
        -3.469446951953614e-18
      ]
    },
    {
      "name": "WepPos_L_017",
      "rotation": [
        -2.634221977797238e-29,
        2.019312124414751e-27,
        0.01304403506219387,
        0.9999149441719055
      ],
      "translation": [
        0.0971289873123169,
        -4.440892098500626e-16,
        1.1521165965699964e-14
      ]
    },
    {
      "children": [
        26
      ],
      "name": "UpperArm_R_018",
      "rotation": [
        0.5366343259811401,
        -0.46046021580696106,
        0.5366343259811401,
        0.46046021580696106
      ],
      "translation": [
        0.03344392776489258,
        -0.00020739030151162297,
        -0.06430120021104813
      ]
    },
    {
      "children": [
        27
      ],
      "name": "ForeArm_R_019",
      "rotation": [
        -1.249000770354403e-16,
        6.8338665618322e-14,
        4.16802578779088e-13,
        1.0
      ],
      "translation": [
        -0.11480680108070374,
        -9.314771176605063e-14,
        1.5882260784305657e-14
      ]
    },
    {
      "children": [
        28
      ],
      "name": "Hand_R_020",
      "rotation": [
        7.449946437532162e-09,
        -9.704811954058812e-11,
        -0.01304403506219387,
        0.9999149441719055
      ],
      "translation": [
        -0.10500499606132507,
        8.881784197001252e-16,
        6.071532165918825e-18
      ]
    },
    {
      "children": [
        29
      ],
      "name": "WepPos_R_021",
      "rotation": [
        0.9999149441719055,
        0.01304403506219387,
        -6.902397625902293e-14,
        9.616654100171322e-16
      ],
      "translation": [
        -0.09712905436754227,
        3.057959077068517e-07,
        1.3405943022348765e-14
      ]
    },
    {
      "children": [
        30,
        31
      ],
      "matrix": [
        1.0,
        -2.1539600498026846e-30,
        -5.169878828456423e-26,
        0.0,
        2.1539600498026846e-30,
        1.0,
        0.0,
        0.0,
        5.169878828456423e-26,
        -1.1135712458815841e-55,
        1.0,
        0.0,
        0.0,
        0.0,
        0.0,
        1.0
      ],
      "name": "OptionWeapon"
    },
    {
      "mesh": 1,
      "name": "OptionWeapon_ply_mat_20308190_t_0"
    },
    {
      "children": [
        32,
        33,
        34
      ],
      "name": "effectPos_022",
      "rotation": [
        0.0,
        -0.0,
        -1.0762096529235874e-30,
        1.0
      ]
    },
    {
      "name": "hammer_rim_023",
      "rotation": [
        0.0,
        -0.0,
        -1.0762096529235874e-30,
        1.0
      ]
    },
    {
      "name": "aura_024",
      "rotation": [
        0.0,
        -0.0,
        -1.0762096529235874e-30,
        1.0
      ]
    },
    {
      "name": "tubu_025",
      "rotation": [
        1.1698077528090276e-24,
        -0.7071068286895752,
        1.1698077528090276e-24,
        0.7071068286895752
      ],
      "translation": [
        0.3019999861717224,
        1.1102230246251565e-16,
        0.40400001406669617
      ]
    },
    {
      "children": [
        36
      ],
      "name": "UpperLeg_L_026",
      "rotation": [
        5.749624193518125e-22,
        -3.565616701092615e-14,
        0.9999857544898987,
        -0.005342542193830013
      ],
      "translation": [
        -0.08980432897806168,
        -0.0027741994708776474,
        0.06724154204130173
      ]
    },
    {
      "children": [
        37
      ],
      "name": "LowerLeg_L_027",
      "rotation": [
        -1.3486926563614522e-18,
        -1.1856430533156387e-18,
        0.02279776521027088,
        0.9997401237487793
      ],
      "translation": [
        0.16318751871585846,
        7.008282842946301e-16,
        -4.163336342344337e-17
      ]
    },
    {
      "name": "Foot_L_028",
      "rotation": [
        0.0,
        0.0,
        6.938893903907228e-18,
        1.0
      ],
      "translation": [
        0.14461083710193634,
        4.5102810375396984e-17,
        1.6653345369377348e-16
      ]
    },
    {
      "children": [
        39
      ],
      "name": "UpperLeg_R_029",
      "rotation": [
        -1.312921912158092e-25,
        5.47276457550476e-16,
        0.0053425258956849575,
        0.9999857544898987
      ],
      "translation": [
        -0.08980482816696167,
        -0.0027741738595068455,
        -0.06724149733781815
      ]
    },
    {
      "children": [
        40
      ],
      "name": "LowerLeg_R_030",
      "rotation": [
        3.07288007438223e-19,
        9.858002374206042e-16,
        0.02279776521027088,
        0.9997401237487793
      ],
      "translation": [
        -0.16318722069263458,
        -2.4998083603122723e-08,
        3.191891195797325e-16
      ]
    },
    {
      "name": "Foot_R_031",
      "rotation": [
        -2.465190328815662e-32,
        -4.514379789643681e-31,
        -1.3877787807814457e-17,
        1.0
      ],
      "translation": [
        -0.14461062848567963,
        -3.4223880618355906e-08,
        -5.828670879282072e-16
      ]
    },
    {
      "name": "body"
    }
  ],
  "samplers": [
    {
      "magFilter": 9729,
      "minFilter": 9987,
      "wrapS": 10497,
      "wrapT": 10497
    }
  ],
  "scene": 0,
  "scenes": [
    {
      "name": "Sketchfab_Scene",
      "nodes": [
        0
      ]
    }
  ],
  "skins": [
    {
      "inverseBindMatrices": 8,
      "joints": [
        4,
        7,
        8,
        9,
        10,
        11,
        12,
        13,
        14,
        15,
        16,
        17,
        18,
        19,
        20,
        21,
        22,
        23,
        24,
        25,
        26,
        27,
        28,
        31,
        32,
        33,
        34,
        35,
        36,
        37,
        38,
        39,
        40
      ],
      "skeleton": 4
    }
  ],
  "textures": [
    {
      "sampler": 0,
      "source": 0
    },
    {
      "sampler": 0,
      "source": 1
    }
  ]
}
